<svg width="33" height="33" viewBox="0 0 33 33" fill="none" xmlns="http://www.w3.org/2000/svg">
<path d="M7.22225 1.9751H3.22225C2.86863 1.9751 2.52949 2.11557 2.27944 2.36562C2.02939 2.61567 1.88892 2.95481 1.88892 3.30843V29.9751C1.88892 30.3287 2.02939 30.6679 2.27944 30.9179C2.52949 31.1679 2.86863 31.3084 3.22225 31.3084H7.22225V1.9751Z" fill="#D6B1FF"/>
<path d="M9.88892 31.3084H23.2222V1.9751H9.88892V31.3084ZM16.5556 25.9751C16.202 25.9751 15.8628 25.8346 15.6128 25.5846C15.3627 25.3345 15.2222 24.9954 15.2222 24.6418C15.2222 24.2881 15.3627 23.949 15.6128 23.6989C15.8628 23.4489 16.202 23.3084 16.5556 23.3084C16.9092 23.3084 17.2483 23.4489 17.4984 23.6989C17.7484 23.949 17.8889 24.2881 17.8889 24.6418C17.8889 24.9954 17.7484 25.3345 17.4984 25.5846C17.2483 25.8346 16.9092 25.9751 16.5556 25.9751ZM16.5556 7.30843C16.9092 7.30843 17.2483 7.4489 17.4984 7.69895C17.7484 7.949 17.8889 8.28814 17.8889 8.64176C17.8889 8.99538 17.7484 9.33452 17.4984 9.58457C17.2483 9.83462 16.9092 9.9751 16.5556 9.9751C16.202 9.9751 15.8628 9.83462 15.6128 9.58457C15.3627 9.33452 15.2222 8.99538 15.2222 8.64176C15.2222 8.28814 15.3627 7.949 15.6128 7.69895C15.8628 7.4489 16.202 7.30843 16.5556 7.30843ZM16.5556 15.3084C16.9092 15.3084 17.2483 15.4489 17.4984 15.699C17.7484 15.949 17.8889 16.2881 17.8889 16.6418C17.8889 16.9954 17.7484 17.3345 17.4984 17.5846C17.2483 17.8346 16.9092 17.9751 16.5556 17.9751C16.202 17.9751 15.8628 17.8346 15.6128 17.5846C15.3627 17.3345 15.2222 16.9954 15.2222 16.6418C15.2222 16.2881 15.3627 15.949 15.6128 15.699C15.8628 15.4489 16.202 15.3084 16.5556 15.3084Z" fill="#5D5FEF"/>
<path d="M29.8889 1.9751H25.8889V31.3084H29.8889C30.2425 31.3084 30.5817 31.1679 30.8317 30.9179C31.0818 30.6679 31.2222 30.3287 31.2222 29.9751V3.30843C31.2222 2.95481 31.0818 2.61567 30.8317 2.36562C30.5817 2.11557 30.2425 1.9751 29.8889 1.9751Z" fill="#2EC5CE"/>
</svg>
