<svg width="175" height="55" viewBox="0 0 175 55" fill="none" xmlns="http://www.w3.org/2000/svg">
<path d="M19.2238 3.84082C12.5695 3.84082 7.17896 8.11233 7.17896 13.384C7.17896 18.6527 12.5695 22.9271 19.2238 22.9271C25.8723 22.9271 31.2686 18.6527 31.2686 13.384C31.2686 8.11233 25.8723 3.84082 19.2238 3.84082ZM16.079 15.1594C15.8722 15.1594 15.7057 14.9923 15.7057 14.7848C15.7057 14.1103 15.16 13.5598 14.488 13.5598C13.816 13.5598 13.2703 14.1103 13.2703 14.7848C13.2703 14.9923 13.1037 15.1594 12.8969 15.1594C12.6902 15.1594 12.5236 14.9923 12.5236 14.7848C12.5236 13.6953 13.4053 12.8133 14.488 12.8133C15.5736 12.8133 16.4524 13.6981 16.4524 14.7848C16.4524 14.9923 16.2858 15.1594 16.079 15.1594ZM25.5477 15.1594C25.341 15.1594 25.1744 14.9923 25.1744 14.7848C25.1744 14.1103 24.6259 13.5598 23.9538 13.5598C23.2818 13.5598 22.7361 14.1103 22.7361 14.7848C22.7361 14.9923 22.5696 15.1594 22.3628 15.1594C22.156 15.1594 21.9894 14.9923 21.9894 14.7848C21.9894 13.6953 22.874 12.8133 23.9538 12.8133C25.0365 12.8133 25.9211 13.6981 25.9211 14.7848C25.924 14.9923 25.7545 15.1594 25.5477 15.1594Z" fill="#113CFC"/>
<path d="M35.0852 34.6147C35.0852 37.5892 33.1208 40.264 29.999 42.1144C30.3207 40.7684 30.493 39.3388 30.493 37.8573C30.493 32.1504 27.9255 27.2246 24.2351 24.9707C30.5102 26.2331 35.0852 30.0809 35.0852 34.6147Z" fill="#113CFC"/>
<path d="M8.96242 37.8571C8.96242 39.3241 9.13473 40.7364 9.44777 42.0709C6.36908 40.2234 4.43628 37.566 4.43628 34.6145C4.43628 30.1009 8.96816 26.2675 15.1945 24.9878C11.5156 27.2475 8.96242 32.1646 8.96242 37.8571Z" fill="#113CFC"/>
<path d="M28.5574 43.829C26.9319 48.1726 23.5833 51.1586 19.732 51.1586C15.8664 51.1586 12.512 48.1582 10.8894 43.7944C13.4368 44.93 16.4868 45.5901 19.7608 45.5901C23.0003 45.5872 26.0215 44.9387 28.5574 43.829Z" fill="#113CFC"/>
<path d="M29.6116 37.8573C29.6116 39.5607 29.3733 41.1892 28.9367 42.688C26.3779 43.9504 23.1986 44.7027 19.7581 44.7027C16.2888 44.7027 13.0809 43.936 10.5105 42.6505C10.0797 41.1632 9.84424 39.5463 9.84424 37.8573C9.84424 30.5219 14.2785 24.5557 19.7294 24.5557C25.1774 24.5528 29.6116 30.5191 29.6116 37.8573Z" fill="#113CFC"/>
<path d="M57.1524 30.7704C57.1524 34.2814 54.7523 36.6902 50.9301 36.6902H47.7054V42.6367H44.8813V24.8271H50.9301C54.7523 24.8271 57.1524 27.2326 57.1524 30.7704ZM54.2783 30.7704C54.2783 28.4889 52.8295 27.4604 50.653 27.4604H47.7054V34.0569H50.653C52.8295 34.0569 54.2783 33.0552 54.2783 30.7704Z" fill="black"/>
<path d="M67.1001 29.4404V32.0736C66.8263 32.0233 66.5993 31.9999 66.2989 31.9999C63.8253 31.9999 62.1496 33.8056 62.1496 36.5394V42.6334H59.3989V29.5911H62.1496V32.9513C62.6002 30.9948 63.8988 29.3398 66.2722 29.3398C66.576 29.3398 66.8263 29.3666 67.1001 29.4404Z" fill="black"/>
<path d="M68.1985 36.1139C68.1985 31.7252 71.6234 29.3398 74.9983 29.3398C78.3732 29.3398 81.7982 31.7218 81.7982 36.1139C81.7982 40.5027 78.3732 42.888 74.9983 42.888C71.6234 42.888 68.1985 40.5027 68.1985 36.1139ZM79.0475 36.1139C79.0475 33.4304 77.1214 31.8759 74.9983 31.8759C72.8753 31.8759 70.9258 33.4304 70.9258 36.1139C70.9258 38.7974 72.8753 40.3519 74.9983 40.3519C77.1214 40.3519 79.0475 38.7974 79.0475 36.1139Z" fill="black"/>
<path d="M83.2969 36.1139C83.2969 31.7252 86.6951 29.3398 90.0967 29.3398C92.37 29.3398 94.4697 30.4186 95.6715 32.5493L93.6218 33.8291C92.8707 32.6264 91.5989 31.8726 90.1234 31.8726C88.0237 31.8726 86.0242 33.4271 86.0242 36.1106C86.0242 38.7941 88.0237 40.3486 90.1234 40.3486C91.5989 40.3486 92.8741 39.5948 93.6218 38.3921L95.6715 39.6718C94.4731 41.7791 92.3733 42.8813 90.0967 42.8813C86.6951 42.888 83.2969 40.5027 83.2969 36.1139Z" fill="black"/>
<path d="M109.415 37.1658H99.2166C99.6406 39.4238 101.416 40.5763 103.64 40.5763C105.038 40.5763 106.29 40.124 107.238 39.2228L108.537 40.5763C107.412 41.98 105.539 42.8846 103.339 42.8846C99.8142 42.8846 96.6162 40.4523 96.6162 36.1105C96.6162 31.7218 99.8409 29.3364 103.139 29.3364C106.44 29.3398 110.039 31.6983 109.415 37.1658ZM99.1933 35.1121H106.968C106.818 32.8541 105.018 31.7017 103.169 31.7017C101.343 31.6983 99.5939 32.8039 99.1933 35.1121Z" fill="black"/>
<path d="M110.49 39.3L112.739 38.6735C113.013 39.7757 113.838 40.6568 115.19 40.6568C116.214 40.6568 117.216 40.1308 117.216 38.975C117.216 38.1475 116.665 37.645 115.417 37.1424L114.018 36.6165C111.868 35.789 110.97 34.4589 110.97 32.9279C110.97 30.7201 112.893 29.3398 115.243 29.3398C117.466 29.3398 119.092 30.5694 119.543 32.4756L117.369 33.0519C116.996 31.9965 116.271 31.5476 115.37 31.5476C114.368 31.5476 113.671 32.1004 113.671 32.9513C113.671 33.6281 114.095 34.2043 115.27 34.6331L116.545 35.1357C118.344 35.8124 119.97 36.7404 119.97 38.975C119.97 41.5848 117.77 42.888 115.22 42.888C112.716 42.888 110.89 41.6082 110.49 39.3Z" fill="black"/>
<path d="M121.339 39.3L123.589 38.6735C123.862 39.7757 124.687 40.6568 126.039 40.6568C127.064 40.6568 128.065 40.1308 128.065 38.975C128.065 38.1475 127.514 37.645 126.266 37.1424L124.867 36.6165C122.717 35.789 121.819 34.4589 121.819 32.9279C121.819 30.7201 123.742 29.3398 126.092 29.3398C128.315 29.3398 129.941 30.5694 130.392 32.4756L128.219 33.0519C127.845 31.9965 127.12 31.5476 126.219 31.5476C125.218 31.5476 124.52 32.1004 124.52 32.9513C124.52 33.6281 124.944 34.2043 126.119 34.6331L127.394 35.1357C129.193 35.8124 130.819 36.7404 130.819 38.975C130.819 41.5848 128.619 42.888 126.069 42.888C123.562 42.888 121.736 41.6082 121.339 39.3Z" fill="black"/>
<path d="M145.133 37.4674C145.133 40.5027 143.107 42.6334 139.061 42.6334H132.939V24.8271H139.238C142.312 24.8271 144.062 26.7334 144.062 29.0651C144.062 30.8474 143.013 32.1741 141.588 32.7269C143.581 33.2294 145.133 34.8107 145.133 37.4674ZM135.759 27.3331V31.9228H138.66C140.436 31.9228 141.334 30.9446 141.334 29.5643C141.334 28.184 140.433 27.3331 138.66 27.3331H135.759ZM142.332 37.1927C142.332 35.3869 141.207 34.134 138.834 34.134H135.759V40.1308H138.884C141.207 40.1275 142.332 39.0252 142.332 37.1927Z" fill="black"/>
<path d="M159.254 29.5908V42.6364H156.48V40.7034C155.755 41.9061 154.407 42.8844 152.33 42.8844C149.63 42.8844 147.356 41.2026 147.356 37.2661V29.5908H150.107V36.8138C150.107 39.0953 151.382 40.3751 153.282 40.3751C155.181 40.3751 156.48 39.0953 156.48 36.8138V29.5908H159.254Z" fill="black"/>
<path d="M175 24.8271V42.6367H172.249V40.5563H172.176C171.702 41.5848 170.053 42.888 167.676 42.888C164.601 42.888 161.377 40.6065 161.377 36.1139C161.377 31.6213 164.601 29.3399 167.676 29.3399C170.049 29.3399 171.702 30.6431 172.176 31.6716H172.226V24.8271H175ZM172.326 36.1139C172.326 33.3031 170.303 31.8491 168.203 31.8491C166.13 31.8491 164.104 33.3031 164.104 36.1139C164.104 38.9247 166.13 40.3787 168.203 40.3787C170.303 40.3787 172.326 38.9247 172.326 36.1139Z" fill="black"/>
</svg>
