<svg width="50" height="50" viewBox="0 0 50 50" fill="none" xmlns="http://www.w3.org/2000/svg">
<path d="M30.6251 13.1251C30.2433 13.5145 30.0295 14.0381 30.0295 14.5834C30.0295 15.1288 30.2433 15.6523 30.6251 16.0418L33.9584 19.3751C34.3478 19.7568 34.8714 19.9706 35.4167 19.9706C35.962 19.9706 36.4856 19.7568 36.8751 19.3751L44.7292 11.5209C45.7768 13.8359 46.094 16.4152 45.6385 18.915C45.183 21.4148 43.9765 23.7164 42.1798 25.5132C40.3831 27.3099 38.0814 28.5164 35.5816 28.9719C33.0818 29.4274 30.5025 29.1102 28.1876 28.0626L13.7917 42.4584C12.9629 43.2872 11.8388 43.7528 10.6667 43.7528C9.49463 43.7528 8.37053 43.2872 7.54173 42.4584C6.71293 41.6296 6.24731 40.5055 6.24731 39.3334C6.24731 38.1613 6.71293 37.0372 7.54173 36.2084L21.9376 21.8126C20.89 19.4976 20.5728 16.9184 21.0283 14.4185C21.4837 11.9187 22.6902 9.61709 24.487 7.82035C26.2837 6.02362 28.5854 4.81712 31.0852 4.36165C33.585 3.90617 36.1643 4.22336 38.4792 5.27093L30.6459 13.1043L30.6251 13.1251Z" stroke="white" stroke-width="3" stroke-linecap="round" stroke-linejoin="round"/>
</svg>
