<svg width="45" height="45" viewBox="0 0 45 45" fill="none" xmlns="http://www.w3.org/2000/svg">
<path d="M22.5 45C10.0738 45 0 34.9264 0 22.5C0 10.0736 10.0738 0 22.5 0C34.9262 0 45 10.0736 45 22.5C45 34.9264 34.9262 45 22.5 45ZM30.2766 21.3073L19.0266 14.2761C18.7989 14.134 18.5401 14.0625 18.2812 14.0625C18.0468 14.0625 17.8119 14.1209 17.5994 14.239C17.1524 14.4868 16.875 14.9572 16.875 15.4688V29.5312C16.875 30.0428 17.1524 30.5132 17.5994 30.761C18.0464 31.0103 18.593 30.9952 19.0266 30.7239L30.2766 23.6927C30.6875 23.4352 30.9375 22.9847 30.9375 22.5C30.9375 22.0153 30.6875 21.5648 30.2766 21.3073Z" fill="#113CFC"/>
</svg>
